:SAMPLES-PER-SECOND 30
:FRAME-RANGE 1-2009
:FULLY-SPECIFIED
:DEGREES
1758
root  24.3017 39.3388 -76.3131 4.81256 -82.9449 0.226257
RightUpLeg  -14.1287 -17.5948 -8.17298
RightLeg  17.328 -0.143204 0.386239
RightFoot  -5.29602 -0.708311 12.6797
RightToes  4.71047e-010 1.2921e-014 -6.02303e-014
Spine  9.55719 -0.313317 7.55038
Spine1  -0.528127 2.09456 -10.036
HEad  14.1538 -22.7555 -5.9503
LeftShoulder1  1.30538 -0.368897 -27.5919
LeftArm  21.1269 16.3968 -18.7157
LeftForeArm  -7.00116 -22.9363 -5.4983
LeftHand  0.178461 -0.566121 -3.44195
RightShoulder  1.81081 13.2011 2.72184
RightArm  34.37 8.6624 6.55441
RightForeArm  30.9277 33.6248 5.68697
RightHand  1.072 5.40496 11.1547
LeftUpLeg  -20.9094 23.4642 -5.73417
LeftLeg  39.5529 7.35586 6.84519
LeftFoot  -11.007 0.0881817 -7.64241
LeftToes  2.15783e-011 -7.56106e-012 -8.20802e-012
1759
root  24.1969 39.485 -76.5484 2.65631 -80.1679 3.12625
RightUpLeg  -13.3638 -18.7663 -8.71433
RightLeg  16.191 -1.97542 0.695882
RightFoot  -5.09191 -0.725621 12.6066
RightToes  4.71047e-010 1.2921e-014 -6.02303e-014
Spine  9.2011 -0.310684 7.99418
Spine1  -0.501442 2.08938 -10.025
HEad  13.9391 -18.4157 -6.21728
LeftShoulder1  1.28428 -0.293231 -27.7102
LeftArm  21.4091 17.5193 -18.7283
LeftForeArm  -6.0236 -20.2832 -7.24886
LeftHand  0.251139 -0.803289 -4.65289
RightShoulder  1.86734 12.1332 3.97588
RightArm  35.4496 6.70806 7.07675
RightForeArm  34.1769 34.9713 5.84187
RightHand  0.641913 5.14629 6.74553
LeftUpLeg  -22.9678 26.9113 -7.72536
LeftLeg  42.6364 7.19481 7.43405
LeftFoot  -11.0376 0.0877867 -8.19789
LeftToes  2.15783e-011 -7.56106e-012 -8.20802e-012
1760
root  24.091 39.5949 -76.7352 3.23593 -77.1393 3.17453
RightUpLeg  -12.2466 -18.3373 -9.31976
RightLeg  14.9043 -5.57725 1.16596
RightFoot  -4.91805 -0.735831 12.4681
RightToes  4.71047e-010 1.2921e-014 -6.02303e-014
Spine  9.08787 -0.254502 8.31139
Spine1  -0.961907 2.0105 -9.52758
HEad  13.6548 -14.5776 -6.04368
LeftShoulder1  1.25074 -0.172455 -27.9129
LeftArm  19.4017 19.0524 -18.9433
LeftForeArm  -4.4386 -18.2926 -9.01014
LeftHand  0.271794 -0.386111 -5.4578
RightShoulder  2.06506 10.9632 6.61628
RightArm  34.5405 5.26245 7.71166
RightForeArm  35.3924 35.0489 5.79267
RightHand  0.307019 5.67969 2.8899
LeftUpLeg  -24.5942 27.771 -8.31709
LeftLeg  45.8802 7.95901 9.10366
LeftFoot  -10.7536 0.101099 -7.15682
LeftToes  2.15783e-011 -7.56106e-012 -8.20802e-012
1761
root  23.9746 39.6539 -76.888 4.73349 -73.6941 2.16068
RightUpLeg  -10.9399 -17.0014 -9.80405
RightLeg  13.7907 -10.4181 1.6643
RightFoot  -4.93643 -0.733881 12.467
RightToes  4.71047e-010 1.2921e-014 -6.02303e-014
Spine  9.09736 -0.17202 8.38612
Spine1  -1.64333 1.85876 -8.57931
HEad  13.3121 -11.4944 -5.4328
LeftShoulder1  1.24328 -0.108335 -28.3199
LeftArm  15.9202 20.3298 -19.1735
LeftForeArm  -1.90076 -15.969 -10.8996
LeftHand  0.252913 0.0204132 -5.51582
RightShoulder  2.38764 9.43131 11.3091
RightArm  29.7246 4.88539 7.60974
RightForeArm  35.1187 34.1339 5.57744
RightHand  0.21966 3.84844 2.49578
LeftUpLeg  -25.7136 26.8476 -7.5844
LeftLeg  48.1603 7.61923 9.43984
LeftFoot  -10.5898 0.10585 -6.46799
LeftToes  2.15783e-011 -7.56106e-012 -8.20802e-012
1762
root  23.8448 39.6994 -76.9889 5.04944 -70.2801 2.16016
RightUpLeg  -9.46552 -16.0593 -10.3956
RightLeg  12.6939 -14.6737 2.11528
RightFoot  -5.05565 -0.733556 12.6817
RightToes  4.71047e-010 1.2921e-014 -6.02303e-014
Spine  9.3394 -0.0445359 7.98545
Spine1  -2.41376 1.75086 -7.63594
HEad  12.6387 -9.16358 -5.15112
LeftShoulder1  1.2086 0.0476802 -28.8804
LeftArm  13.5247 21.304 -19.3444
LeftForeArm  -0.423553 -13.956 -12.4106
LeftHand  0.231533 0.315513 -5.38706
RightShoulder  2.68513 7.83726 17.0643
RightArm  21.9556 5.44471 7.48695
RightForeArm  35.2404 32.3956 5.14622
RightHand  0.0628885 4.11942 0.49379
LeftUpLeg  -26.1737 25.9233 -6.35632
LeftLeg  48.5885 6.37065 8.10682
LeftFoot  -10.7255 0.0967599 -6.0504
LeftToes  2.15783e-011 -7.56106e-012 -8.20802e-012
1763
root  23.7118 39.7433 -77.0255 5.41061 -66.6876 2.17117
RightUpLeg  -7.96769 -15.5033 -10.7376
RightLeg  11.3972 -18.7876 2.37422
RightFoot  -5.04532 -0.75281 13.0082
RightToes  4.71047e-010 1.2921e-014 -6.02303e-014
Spine  9.20357 0.0559677 7.3767
Spine1  -2.88521 1.58659 -6.61492
HEad  11.9271 -7.27394 -5.39008
LeftShoulder1  1.157 0.2403 -29.3699
LeftArm  10.3891 21.9018 -19.7968
LeftForeArm  1.59799 -11.4846 -13.9279
LeftHand  0.240787 0.205342 -5.46557
RightShoulder  2.97531 6.8424 22.5417
RightArm  13.7684 6.75376 7.7063
RightForeArm  37.1863 29.5797 4.39092
RightHand  -0.144083 4.30365 -2.00473
LeftUpLeg  -26.6104 25.6145 -5.02162
LeftLeg  47.2069 5.56304 6.81866
LeftFoot  -10.5855 0.100164 -5.57051
LeftToes  2.15783e-011 -7.56106e-012 -8.20802e-012
